<mxfile host="app.diagrams.net" modified="2023-11-27T01:16:43.605Z" agent="Mozilla/5.0 (Windows NT 10.0; Win64; x64) AppleWebKit/537.36 (KHTML, like Gecko) Chrome/119.0.0.0 Safari/537.36" version="22.1.4" etag="bi0HGiI2CVrTqHpY4VSk" type="github">
  <diagram name="Page-1" id="7Dllb6Oy5iTbGtHU71ur">
    <mxGraphModel>
      <root>
        <mxCell id="0" />
        <mxCell id="1" parent="0" />
      </root>
    </mxGraphModel>
  </diagram>
</mxfile>
